# xmcd CD database file generated by Grip 3.2.0
# 
# Track frame offsets:
#       183
#       13303
#       27028
#       40505
#       54360
#       67093
#       79040
#       92393
#       106348
#       120915
#       131698
#       144273
#       157545
#       169748
#       180015
#       192223
#       204478
#       216850
#       229223
#       239418
#       250048
#       261393
# 
# Disc length: 3629 seconds
# 
# Revision: 2
# Processed by: cddbd v1.5.2PL0 Copyright (c) Steve Scherf et al.
# Submitted via: Grip 3.2.0
# 
DISCID=150e2b16
DTITLE=Various Artist - Door to Door
DYEAR=1900
DGENRE=Blues
TTITLE0=Albert King - Be on Your Merry Way
TTITLE1=Albert King - Bad Luck Blues
TTITLE2=Albert King - Murder
TTITLE3=Albert King - Searchin  for a Woman
TTITLE4=Albert King - California
TTITLE5=Albert King - Wild Woman
TTITLE6=Albert King - Won't Be Hangin Around
TTITLE7=Albert King - Howlin  For My Darling
TTITLE8=Otis Rush - So Many Roads So Many Trains
TTITLE9=Otis Rush - I'm Satisfied
TTITLE10=Otis Rush - So Close
TTITLE11=Otis Rush - All Your Love (I Miss Living)
TTITLE12=Otis Rush - You Know My Love
TTITLE13=Otis Rush - I Can't Stop, Baby
TTITLE14=Otis Spann - It Must Have Been the Devil
TTITLE15=Otis Spann - Five Spot
TTITLE16=Otis Spann - I`m Leaving You
TTITLE17=Otis Spann - I'm in Love with You, Baby
TTITLE18=B.B. King - Don't Keep Me Waiting
TTITLE19=B.B. King - Recession Blues
TTITLE20=B.B. King - Tickle Britches
TTITLE21=B.B. King - Don't Break Your Promise
EXTD=
EXTT0=
EXTT1=
EXTT2=
EXTT3=
EXTT4=
EXTT5=
EXTT6=
EXTT7=
EXTT8=
EXTT9=
EXTT10=
EXTT11=
EXTT12=
EXTT13=
EXTT14=
EXTT15=
EXTT16=
EXTT17=
EXTT18=
EXTT19=
EXTT20=
EXTT21=
PLAYORDER=
